<?xml version="1.0" encoding="utf-8" standalone="no"?>
<!DOCTYPE svg PUBLIC "-//W3C//DTD SVG 1.1//EN"
  "http://www.w3.org/Graphics/SVG/1.1/DTD/svg11.dtd">
<svg xmlns:xlink="http://www.w3.org/1999/xlink" width="864pt" height="432pt" viewBox="0 0 864 432" xmlns="http://www.w3.org/2000/svg" version="1.1">
 <metadata>
  <rdf:RDF xmlns:dc="http://purl.org/dc/elements/1.1/" xmlns:cc="http://creativecommons.org/ns#" xmlns:rdf="http://www.w3.org/1999/02/22-rdf-syntax-ns#">
   <cc:Work>
    <dc:type rdf:resource="http://purl.org/dc/dcmitype/StillImage"/>
    <dc:date>1980-01-01T00:00:00+00:00</dc:date>
    <dc:format>image/svg+xml</dc:format>
    <dc:creator>
     <cc:Agent>
      <dc:title>Matplotlib v3.10.7, https://matplotlib.org/</dc:title>
     </cc:Agent>
    </dc:creator>
   </cc:Work>
  </rdf:RDF>
 </metadata>
 <defs>
  <style type="text/css">*{stroke-linejoin: round; stroke-linecap: butt}</style>
 </defs>
 <g id="figure_1">
  <g id="patch_1">
   <path d="M 0 432 
L 864 432 
L 864 0 
L 0 0 
z
" style="fill: #ffffff"/>
  </g>
  <g id="axes_1">
   <g id="patch_2">
    <path d="M 108 384.48 
L 777.6 384.48 
L 777.6 51.84 
L 108 51.84 
z
" style="fill: #ffffff"/>
   </g>
   <g id="matplotlib.axis_1">
    <g id="xtick_1">
     <g id="line2d_1">
      <defs>
       <path id="m7d038483cf" d="M 0 0 
L 0 3.5 
" style="stroke: #000000; stroke-width: 0.8"/>
      </defs>
      <g>
       <use xlink:href="#m7d038483cf" x="138.436364" y="384.48" style="stroke: #000000; stroke-width: 0.8"/>
      </g>
     </g>
     <g id="text_1">
      <!-- 0 -->
      <g transform="translate(135.255114 399.078438) scale(0.1 -0.1)">
       <defs>
        <path id="DejaVuSans-30" d="M 2034 4250 
Q 1547 4250 1301 3770 
Q 1056 3291 1056 2328 
Q 1056 1369 1301 889 
Q 1547 409 2034 409 
Q 2525 409 2770 889 
Q 3016 1369 3016 2328 
Q 3016 3291 2770 3770 
Q 2525 4250 2034 4250 
z
M 2034 4750 
Q 2819 4750 3233 4129 
Q 3647 3509 3647 2328 
Q 3647 1150 3233 529 
Q 2819 -91 2034 -91 
Q 1250 -91 836 529 
Q 422 1150 422 2328 
Q 422 3509 836 4129 
Q 1250 4750 2034 4750 
z
" transform="scale(0.015625)"/>
       </defs>
       <use xlink:href="#DejaVuSans-30"/>
      </g>
     </g>
    </g>
    <g id="xtick_2">
     <g id="line2d_2">
      <g>
       <use xlink:href="#m7d038483cf" x="243.389342" y="384.48" style="stroke: #000000; stroke-width: 0.8"/>
      </g>
     </g>
     <g id="text_2">
      <!-- 5 -->
      <g transform="translate(240.208092 399.078438) scale(0.1 -0.1)">
       <defs>
        <path id="DejaVuSans-35" d="M 691 4666 
L 3169 4666 
L 3169 4134 
L 1269 4134 
L 1269 2991 
Q 1406 3038 1543 3061 
Q 1681 3084 1819 3084 
Q 2600 3084 3056 2656 
Q 3513 2228 3513 1497 
Q 3513 744 3044 326 
Q 2575 -91 1722 -91 
Q 1428 -91 1123 -41 
Q 819 9 494 109 
L 494 744 
Q 775 591 1075 516 
Q 1375 441 1709 441 
Q 2250 441 2565 725 
Q 2881 1009 2881 1497 
Q 2881 1984 2565 2268 
Q 2250 2553 1709 2553 
Q 1456 2553 1204 2497 
Q 953 2441 691 2322 
L 691 4666 
z
" transform="scale(0.015625)"/>
       </defs>
       <use xlink:href="#DejaVuSans-35"/>
      </g>
     </g>
    </g>
    <g id="xtick_3">
     <g id="line2d_3">
      <g>
       <use xlink:href="#m7d038483cf" x="348.34232" y="384.48" style="stroke: #000000; stroke-width: 0.8"/>
      </g>
     </g>
     <g id="text_3">
      <!-- 10 -->
      <g transform="translate(341.97982 399.078438) scale(0.1 -0.1)">
       <defs>
        <path id="DejaVuSans-31" d="M 794 531 
L 1825 531 
L 1825 4091 
L 703 3866 
L 703 4441 
L 1819 4666 
L 2450 4666 
L 2450 531 
L 3481 531 
L 3481 0 
L 794 0 
L 794 531 
z
" transform="scale(0.015625)"/>
       </defs>
       <use xlink:href="#DejaVuSans-31"/>
       <use xlink:href="#DejaVuSans-30" transform="translate(63.623047 0)"/>
      </g>
     </g>
    </g>
    <g id="xtick_4">
     <g id="line2d_4">
      <g>
       <use xlink:href="#m7d038483cf" x="453.295298" y="384.48" style="stroke: #000000; stroke-width: 0.8"/>
      </g>
     </g>
     <g id="text_4">
      <!-- 15 -->
      <g transform="translate(446.932798 399.078438) scale(0.1 -0.1)">
       <use xlink:href="#DejaVuSans-31"/>
       <use xlink:href="#DejaVuSans-35" transform="translate(63.623047 0)"/>
      </g>
     </g>
    </g>
    <g id="xtick_5">
     <g id="line2d_5">
      <g>
       <use xlink:href="#m7d038483cf" x="558.248276" y="384.48" style="stroke: #000000; stroke-width: 0.8"/>
      </g>
     </g>
     <g id="text_5">
      <!-- 20 -->
      <g transform="translate(551.885776 399.078438) scale(0.1 -0.1)">
       <defs>
        <path id="DejaVuSans-32" d="M 1228 531 
L 3431 531 
L 3431 0 
L 469 0 
L 469 531 
Q 828 903 1448 1529 
Q 2069 2156 2228 2338 
Q 2531 2678 2651 2914 
Q 2772 3150 2772 3378 
Q 2772 3750 2511 3984 
Q 2250 4219 1831 4219 
Q 1534 4219 1204 4116 
Q 875 4013 500 3803 
L 500 4441 
Q 881 4594 1212 4672 
Q 1544 4750 1819 4750 
Q 2544 4750 2975 4387 
Q 3406 4025 3406 3419 
Q 3406 3131 3298 2873 
Q 3191 2616 2906 2266 
Q 2828 2175 2409 1742 
Q 1991 1309 1228 531 
z
" transform="scale(0.015625)"/>
       </defs>
       <use xlink:href="#DejaVuSans-32"/>
       <use xlink:href="#DejaVuSans-30" transform="translate(63.623047 0)"/>
      </g>
     </g>
    </g>
    <g id="xtick_6">
     <g id="line2d_6">
      <g>
       <use xlink:href="#m7d038483cf" x="663.201254" y="384.48" style="stroke: #000000; stroke-width: 0.8"/>
      </g>
     </g>
     <g id="text_6">
      <!-- 25 -->
      <g transform="translate(656.838754 399.078438) scale(0.1 -0.1)">
       <use xlink:href="#DejaVuSans-32"/>
       <use xlink:href="#DejaVuSans-35" transform="translate(63.623047 0)"/>
      </g>
     </g>
    </g>
    <g id="xtick_7">
     <g id="line2d_7">
      <g>
       <use xlink:href="#m7d038483cf" x="768.154232" y="384.48" style="stroke: #000000; stroke-width: 0.8"/>
      </g>
     </g>
     <g id="text_7">
      <!-- 30 -->
      <g transform="translate(761.791732 399.078438) scale(0.1 -0.1)">
       <defs>
        <path id="DejaVuSans-33" d="M 2597 2516 
Q 3050 2419 3304 2112 
Q 3559 1806 3559 1356 
Q 3559 666 3084 287 
Q 2609 -91 1734 -91 
Q 1441 -91 1130 -33 
Q 819 25 488 141 
L 488 750 
Q 750 597 1062 519 
Q 1375 441 1716 441 
Q 2309 441 2620 675 
Q 2931 909 2931 1356 
Q 2931 1769 2642 2001 
Q 2353 2234 1838 2234 
L 1294 2234 
L 1294 2753 
L 1863 2753 
Q 2328 2753 2575 2939 
Q 2822 3125 2822 3475 
Q 2822 3834 2567 4026 
Q 2313 4219 1838 4219 
Q 1578 4219 1281 4162 
Q 984 4106 628 3988 
L 628 4550 
Q 988 4650 1302 4700 
Q 1616 4750 1894 4750 
Q 2613 4750 3031 4423 
Q 3450 4097 3450 3541 
Q 3450 3153 3228 2886 
Q 3006 2619 2597 2516 
z
" transform="scale(0.015625)"/>
       </defs>
       <use xlink:href="#DejaVuSans-33"/>
       <use xlink:href="#DejaVuSans-30" transform="translate(63.623047 0)"/>
      </g>
     </g>
    </g>
   </g>
   <g id="matplotlib.axis_2">
    <g id="ytick_1">
     <g id="line2d_8">
      <defs>
       <path id="m9e51c81d28" d="M 0 0 
L -3.5 0 
" style="stroke: #000000; stroke-width: 0.8"/>
      </defs>
      <g>
       <use xlink:href="#m9e51c81d28" x="108" y="361.416368" style="stroke: #000000; stroke-width: 0.8"/>
      </g>
     </g>
     <g id="text_8">
      <!-- 41.0 -->
      <g transform="translate(78.734375 365.215587) scale(0.1 -0.1)">
       <defs>
        <path id="DejaVuSans-34" d="M 2419 4116 
L 825 1625 
L 2419 1625 
L 2419 4116 
z
M 2253 4666 
L 3047 4666 
L 3047 1625 
L 3713 1625 
L 3713 1100 
L 3047 1100 
L 3047 0 
L 2419 0 
L 2419 1100 
L 313 1100 
L 313 1709 
L 2253 4666 
z
" transform="scale(0.015625)"/>
        <path id="DejaVuSans-2e" d="M 684 794 
L 1344 794 
L 1344 0 
L 684 0 
L 684 794 
z
" transform="scale(0.015625)"/>
       </defs>
       <use xlink:href="#DejaVuSans-34"/>
       <use xlink:href="#DejaVuSans-31" transform="translate(63.623047 0)"/>
       <use xlink:href="#DejaVuSans-2e" transform="translate(127.246094 0)"/>
       <use xlink:href="#DejaVuSans-30" transform="translate(159.033203 0)"/>
      </g>
     </g>
    </g>
    <g id="ytick_2">
     <g id="line2d_9">
      <g>
       <use xlink:href="#m9e51c81d28" x="108" y="322.913596" style="stroke: #000000; stroke-width: 0.8"/>
      </g>
     </g>
     <g id="text_9">
      <!-- 41.5 -->
      <g transform="translate(78.734375 326.712814) scale(0.1 -0.1)">
       <use xlink:href="#DejaVuSans-34"/>
       <use xlink:href="#DejaVuSans-31" transform="translate(63.623047 0)"/>
       <use xlink:href="#DejaVuSans-2e" transform="translate(127.246094 0)"/>
       <use xlink:href="#DejaVuSans-35" transform="translate(159.033203 0)"/>
      </g>
     </g>
    </g>
    <g id="ytick_3">
     <g id="line2d_10">
      <g>
       <use xlink:href="#m9e51c81d28" x="108" y="284.410823" style="stroke: #000000; stroke-width: 0.8"/>
      </g>
     </g>
     <g id="text_10">
      <!-- 42.0 -->
      <g transform="translate(78.734375 288.210042) scale(0.1 -0.1)">
       <use xlink:href="#DejaVuSans-34"/>
       <use xlink:href="#DejaVuSans-32" transform="translate(63.623047 0)"/>
       <use xlink:href="#DejaVuSans-2e" transform="translate(127.246094 0)"/>
       <use xlink:href="#DejaVuSans-30" transform="translate(159.033203 0)"/>
      </g>
     </g>
    </g>
    <g id="ytick_4">
     <g id="line2d_11">
      <g>
       <use xlink:href="#m9e51c81d28" x="108" y="245.908051" style="stroke: #000000; stroke-width: 0.8"/>
      </g>
     </g>
     <g id="text_11">
      <!-- 42.5 -->
      <g transform="translate(78.734375 249.70727) scale(0.1 -0.1)">
       <use xlink:href="#DejaVuSans-34"/>
       <use xlink:href="#DejaVuSans-32" transform="translate(63.623047 0)"/>
       <use xlink:href="#DejaVuSans-2e" transform="translate(127.246094 0)"/>
       <use xlink:href="#DejaVuSans-35" transform="translate(159.033203 0)"/>
      </g>
     </g>
    </g>
    <g id="ytick_5">
     <g id="line2d_12">
      <g>
       <use xlink:href="#m9e51c81d28" x="108" y="207.405278" style="stroke: #000000; stroke-width: 0.8"/>
      </g>
     </g>
     <g id="text_12">
      <!-- 43.0 -->
      <g transform="translate(78.734375 211.204497) scale(0.1 -0.1)">
       <use xlink:href="#DejaVuSans-34"/>
       <use xlink:href="#DejaVuSans-33" transform="translate(63.623047 0)"/>
       <use xlink:href="#DejaVuSans-2e" transform="translate(127.246094 0)"/>
       <use xlink:href="#DejaVuSans-30" transform="translate(159.033203 0)"/>
      </g>
     </g>
    </g>
    <g id="ytick_6">
     <g id="line2d_13">
      <g>
       <use xlink:href="#m9e51c81d28" x="108" y="168.902506" style="stroke: #000000; stroke-width: 0.8"/>
      </g>
     </g>
     <g id="text_13">
      <!-- 43.5 -->
      <g transform="translate(78.734375 172.701725) scale(0.1 -0.1)">
       <use xlink:href="#DejaVuSans-34"/>
       <use xlink:href="#DejaVuSans-33" transform="translate(63.623047 0)"/>
       <use xlink:href="#DejaVuSans-2e" transform="translate(127.246094 0)"/>
       <use xlink:href="#DejaVuSans-35" transform="translate(159.033203 0)"/>
      </g>
     </g>
    </g>
    <g id="ytick_7">
     <g id="line2d_14">
      <g>
       <use xlink:href="#m9e51c81d28" x="108" y="130.399733" style="stroke: #000000; stroke-width: 0.8"/>
      </g>
     </g>
     <g id="text_14">
      <!-- 44.0 -->
      <g transform="translate(78.734375 134.198952) scale(0.1 -0.1)">
       <use xlink:href="#DejaVuSans-34"/>
       <use xlink:href="#DejaVuSans-34" transform="translate(63.623047 0)"/>
       <use xlink:href="#DejaVuSans-2e" transform="translate(127.246094 0)"/>
       <use xlink:href="#DejaVuSans-30" transform="translate(159.033203 0)"/>
      </g>
     </g>
    </g>
    <g id="ytick_8">
     <g id="line2d_15">
      <g>
       <use xlink:href="#m9e51c81d28" x="108" y="91.896961" style="stroke: #000000; stroke-width: 0.8"/>
      </g>
     </g>
     <g id="text_15">
      <!-- 44.5 -->
      <g transform="translate(78.734375 95.69618) scale(0.1 -0.1)">
       <use xlink:href="#DejaVuSans-34"/>
       <use xlink:href="#DejaVuSans-34" transform="translate(63.623047 0)"/>
       <use xlink:href="#DejaVuSans-2e" transform="translate(127.246094 0)"/>
       <use xlink:href="#DejaVuSans-35" transform="translate(159.033203 0)"/>
      </g>
     </g>
    </g>
    <g id="ytick_9">
     <g id="line2d_16">
      <g>
       <use xlink:href="#m9e51c81d28" x="108" y="53.394188" style="stroke: #000000; stroke-width: 0.8"/>
      </g>
     </g>
     <g id="text_16">
      <!-- 45.0 -->
      <g transform="translate(78.734375 57.193407) scale(0.1 -0.1)">
       <use xlink:href="#DejaVuSans-34"/>
       <use xlink:href="#DejaVuSans-35" transform="translate(63.623047 0)"/>
       <use xlink:href="#DejaVuSans-2e" transform="translate(127.246094 0)"/>
       <use xlink:href="#DejaVuSans-30" transform="translate(159.033203 0)"/>
      </g>
     </g>
    </g>
   </g>
   <g id="line2d_17">
    <path d="M 138.436364 72.930909 
L 159.426959 72.930909 
L 180.417555 76.921123 
L 201.40815 66.96 
L 222.398746 112.615564 
L 243.389342 122.281503 
L 264.379937 91.971195 
L 285.370533 91.971195 
L 306.361129 105.125178 
L 327.351724 105.125178 
L 348.34232 105.125178 
L 369.332915 86.346118 
L 390.323511 110.912062 
L 411.314107 115.727673 
L 432.304702 122.170438 
L 453.295298 128.690165 
L 474.285893 139.840696 
L 495.276489 145.86121 
L 516.267085 134.995989 
L 537.25768 133.957027 
L 558.248276 133.957027 
L 579.238871 121.023275 
L 600.229467 121.023275 
L 621.220063 127.460534 
L 642.210658 147.867463 
L 663.201254 133.939963 
L 684.19185 88.625517 
L 705.182445 91.974855 
L 726.173041 123.813826 
L 747.163636 93.905608 
" clip-path="url(#p2626353ac0)" style="fill: none; stroke: #1f77b4; stroke-width: 1.5; stroke-linecap: square"/>
   </g>
   <g id="line2d_18">
    <path d="M 138.436364 72.930909 
L 159.426959 73.371749 
L 180.417555 154.437858 
L 201.40815 106.633228 
L 222.398746 106.633228 
L 243.389342 128.030176 
L 264.379937 117.601453 
L 285.370533 142.236289 
L 306.361129 104.062359 
L 327.351724 104.062359 
L 348.34232 104.062359 
L 369.332915 100.949119 
L 390.323511 112.192852 
L 411.314107 129.274016 
L 432.304702 129.274016 
L 453.295298 144.158023 
L 474.285893 171.346172 
L 495.276489 197.467909 
L 516.267085 247.024469 
L 537.25768 191.576662 
L 558.248276 191.576662 
L 579.238871 218.110691 
L 600.229467 228.875344 
L 621.220063 260.352585 
L 642.210658 260.352585 
L 663.201254 176.185665 
L 684.19185 205.62721 
L 705.182445 218.258874 
L 726.173041 218.258874 
L 747.163636 218.258874 
" clip-path="url(#p2626353ac0)" style="fill: none; stroke: #ff7f0e; stroke-width: 1.5; stroke-linecap: square"/>
   </g>
   <g id="line2d_19">
    <path d="M 138.436364 72.930909 
L 159.426959 80.825792 
L 180.417555 89.94286 
L 201.40815 115.219248 
L 222.398746 115.219248 
L 243.389342 138.497464 
L 264.379937 138.497464 
L 285.370533 138.497464 
L 306.361129 138.497464 
L 327.351724 195.379222 
L 348.34232 195.379222 
L 369.332915 138.647116 
L 390.323511 138.647116 
L 411.314107 138.647116 
L 432.304702 125.234347 
L 453.295298 93.455349 
L 474.285893 141.602632 
L 495.276489 141.602632 
L 516.267085 153.412126 
L 537.25768 202.619917 
L 558.248276 171.207759 
L 579.238871 186.34845 
L 600.229467 178.126637 
L 621.220063 185.176124 
L 642.210658 199.814479 
L 663.201254 192.181802 
L 684.19185 203.643509 
L 705.182445 217.6492 
L 726.173041 222.438085 
L 747.163636 205.278934 
" clip-path="url(#p2626353ac0)" style="fill: none; stroke: #2ca02c; stroke-width: 1.5; stroke-linecap: square"/>
   </g>
   <g id="line2d_20">
    <path d="M 138.436364 72.930909 
L 159.426959 108.488342 
L 180.417555 120.708196 
L 201.40815 137.410497 
L 222.398746 130.852376 
L 243.389342 166.323761 
L 264.379937 166.323761 
L 285.370533 236.559647 
L 306.361129 198.339894 
L 327.351724 209.455079 
L 348.34232 209.455079 
L 369.332915 209.455079 
L 390.323511 214.562641 
L 411.314107 232.013844 
L 432.304702 224.426187 
L 453.295298 234.977561 
L 474.285893 224.426187 
L 495.276489 229.361111 
L 516.267085 233.338132 
L 537.25768 260.810437 
L 558.248276 282.316914 
L 579.238871 284.5348 
L 600.229467 284.5348 
L 621.220063 274.626479 
L 642.210658 274.626479 
L 663.201254 287.733607 
L 684.19185 287.733607 
L 705.182445 287.733607 
L 726.173041 276.695565 
L 747.163636 276.695565 
" clip-path="url(#p2626353ac0)" style="fill: none; stroke: #d62728; stroke-width: 1.5; stroke-linecap: square"/>
   </g>
   <g id="line2d_21">
    <path d="M 138.436364 72.930909 
L 159.426959 139.158303 
L 180.417555 133.326152 
L 201.40815 156.092358 
L 222.398746 157.381523 
L 243.389342 194.275903 
L 264.379937 241.718483 
L 285.370533 241.718483 
L 306.361129 240.729032 
L 327.351724 310.607815 
L 348.34232 256.729079 
L 369.332915 361.784435 
L 390.323511 313.584911 
L 411.314107 313.584911 
L 432.304702 313.584911 
L 453.295298 297.079765 
L 474.285893 307.262343 
L 495.276489 309.57789 
L 516.267085 339.543902 
L 537.25768 337.034059 
L 558.248276 337.034059 
L 579.238871 369.36 
L 600.229467 369.36 
L 621.220063 369.36 
L 642.210658 369.36 
L 663.201254 369.36 
L 684.19185 350.115897 
L 705.182445 349.577926 
L 726.173041 349.577926 
L 747.163636 349.577926 
" clip-path="url(#p2626353ac0)" style="fill: none; stroke: #9467bd; stroke-width: 1.5; stroke-linecap: square"/>
   </g>
   <g id="patch_3">
    <path d="M 108 384.48 
L 108 51.84 
" style="fill: none; stroke: #000000; stroke-width: 0.8; stroke-linejoin: miter; stroke-linecap: square"/>
   </g>
   <g id="patch_4">
    <path d="M 777.6 384.48 
L 777.6 51.84 
" style="fill: none; stroke: #000000; stroke-width: 0.8; stroke-linejoin: miter; stroke-linecap: square"/>
   </g>
   <g id="patch_5">
    <path d="M 108 384.48 
L 777.6 384.48 
" style="fill: none; stroke: #000000; stroke-width: 0.8; stroke-linejoin: miter; stroke-linecap: square"/>
   </g>
   <g id="patch_6">
    <path d="M 108 51.84 
L 777.6 51.84 
" style="fill: none; stroke: #000000; stroke-width: 0.8; stroke-linejoin: miter; stroke-linecap: square"/>
   </g>
   <g id="legend_1">
    <g id="patch_7">
     <path d="M 115 379.48 
L 299.204687 379.48 
Q 301.204687 379.48 301.204687 377.48 
L 301.204687 303.69875 
Q 301.204687 301.69875 299.204687 301.69875 
L 115 301.69875 
Q 113 301.69875 113 303.69875 
L 113 377.48 
Q 113 379.48 115 379.48 
z
" style="fill: #ffffff; opacity: 0.8; stroke: #cccccc; stroke-linejoin: miter"/>
    </g>
    <g id="line2d_22">
     <path d="M 117 309.797188 
L 127 309.797188 
L 137 309.797188 
" style="fill: none; stroke: #1f77b4; stroke-width: 1.5; stroke-linecap: square"/>
    </g>
    <g id="text_17">
     <!-- pop_size=5, mejora=0.61% -->
     <g transform="translate(145 313.297188) scale(0.1 -0.1)">
      <defs>
       <path id="DejaVuSans-70" d="M 1159 525 
L 1159 -1331 
L 581 -1331 
L 581 3500 
L 1159 3500 
L 1159 2969 
Q 1341 3281 1617 3432 
Q 1894 3584 2278 3584 
Q 2916 3584 3314 3078 
Q 3713 2572 3713 1747 
Q 3713 922 3314 415 
Q 2916 -91 2278 -91 
Q 1894 -91 1617 61 
Q 1341 213 1159 525 
z
M 3116 1747 
Q 3116 2381 2855 2742 
Q 2594 3103 2138 3103 
Q 1681 3103 1420 2742 
Q 1159 2381 1159 1747 
Q 1159 1113 1420 752 
Q 1681 391 2138 391 
Q 2594 391 2855 752 
Q 3116 1113 3116 1747 
z
" transform="scale(0.015625)"/>
       <path id="DejaVuSans-6f" d="M 1959 3097 
Q 1497 3097 1228 2736 
Q 959 2375 959 1747 
Q 959 1119 1226 758 
Q 1494 397 1959 397 
Q 2419 397 2687 759 
Q 2956 1122 2956 1747 
Q 2956 2369 2687 2733 
Q 2419 3097 1959 3097 
z
M 1959 3584 
Q 2709 3584 3137 3096 
Q 3566 2609 3566 1747 
Q 3566 888 3137 398 
Q 2709 -91 1959 -91 
Q 1206 -91 779 398 
Q 353 888 353 1747 
Q 353 2609 779 3096 
Q 1206 3584 1959 3584 
z
" transform="scale(0.015625)"/>
       <path id="DejaVuSans-5f" d="M 3263 -1063 
L 3263 -1509 
L -63 -1509 
L -63 -1063 
L 3263 -1063 
z
" transform="scale(0.015625)"/>
       <path id="DejaVuSans-73" d="M 2834 3397 
L 2834 2853 
Q 2591 2978 2328 3040 
Q 2066 3103 1784 3103 
Q 1356 3103 1142 2972 
Q 928 2841 928 2578 
Q 928 2378 1081 2264 
Q 1234 2150 1697 2047 
L 1894 2003 
Q 2506 1872 2764 1633 
Q 3022 1394 3022 966 
Q 3022 478 2636 193 
Q 2250 -91 1575 -91 
Q 1294 -91 989 -36 
Q 684 19 347 128 
L 347 722 
Q 666 556 975 473 
Q 1284 391 1588 391 
Q 1994 391 2212 530 
Q 2431 669 2431 922 
Q 2431 1156 2273 1281 
Q 2116 1406 1581 1522 
L 1381 1569 
Q 847 1681 609 1914 
Q 372 2147 372 2553 
Q 372 3047 722 3315 
Q 1072 3584 1716 3584 
Q 2034 3584 2315 3537 
Q 2597 3491 2834 3397 
z
" transform="scale(0.015625)"/>
       <path id="DejaVuSans-69" d="M 603 3500 
L 1178 3500 
L 1178 0 
L 603 0 
L 603 3500 
z
M 603 4863 
L 1178 4863 
L 1178 4134 
L 603 4134 
L 603 4863 
z
" transform="scale(0.015625)"/>
       <path id="DejaVuSans-7a" d="M 353 3500 
L 3084 3500 
L 3084 2975 
L 922 459 
L 3084 459 
L 3084 0 
L 275 0 
L 275 525 
L 2438 3041 
L 353 3041 
L 353 3500 
z
" transform="scale(0.015625)"/>
       <path id="DejaVuSans-65" d="M 3597 1894 
L 3597 1613 
L 953 1613 
Q 991 1019 1311 708 
Q 1631 397 2203 397 
Q 2534 397 2845 478 
Q 3156 559 3463 722 
L 3463 178 
Q 3153 47 2828 -22 
Q 2503 -91 2169 -91 
Q 1331 -91 842 396 
Q 353 884 353 1716 
Q 353 2575 817 3079 
Q 1281 3584 2069 3584 
Q 2775 3584 3186 3129 
Q 3597 2675 3597 1894 
z
M 3022 2063 
Q 3016 2534 2758 2815 
Q 2500 3097 2075 3097 
Q 1594 3097 1305 2825 
Q 1016 2553 972 2059 
L 3022 2063 
z
" transform="scale(0.015625)"/>
       <path id="DejaVuSans-3d" d="M 678 2906 
L 4684 2906 
L 4684 2381 
L 678 2381 
L 678 2906 
z
M 678 1631 
L 4684 1631 
L 4684 1100 
L 678 1100 
L 678 1631 
z
" transform="scale(0.015625)"/>
       <path id="DejaVuSans-2c" d="M 750 794 
L 1409 794 
L 1409 256 
L 897 -744 
L 494 -744 
L 750 256 
L 750 794 
z
" transform="scale(0.015625)"/>
       <path id="DejaVuSans-20" transform="scale(0.015625)"/>
       <path id="DejaVuSans-6d" d="M 3328 2828 
Q 3544 3216 3844 3400 
Q 4144 3584 4550 3584 
Q 5097 3584 5394 3201 
Q 5691 2819 5691 2113 
L 5691 0 
L 5113 0 
L 5113 2094 
Q 5113 2597 4934 2840 
Q 4756 3084 4391 3084 
Q 3944 3084 3684 2787 
Q 3425 2491 3425 1978 
L 3425 0 
L 2847 0 
L 2847 2094 
Q 2847 2600 2669 2842 
Q 2491 3084 2119 3084 
Q 1678 3084 1418 2786 
Q 1159 2488 1159 1978 
L 1159 0 
L 581 0 
L 581 3500 
L 1159 3500 
L 1159 2956 
Q 1356 3278 1631 3431 
Q 1906 3584 2284 3584 
Q 2666 3584 2933 3390 
Q 3200 3197 3328 2828 
z
" transform="scale(0.015625)"/>
       <path id="DejaVuSans-6a" d="M 603 3500 
L 1178 3500 
L 1178 -63 
Q 1178 -731 923 -1031 
Q 669 -1331 103 -1331 
L -116 -1331 
L -116 -844 
L 38 -844 
Q 366 -844 484 -692 
Q 603 -541 603 -63 
L 603 3500 
z
M 603 4863 
L 1178 4863 
L 1178 4134 
L 603 4134 
L 603 4863 
z
" transform="scale(0.015625)"/>
       <path id="DejaVuSans-72" d="M 2631 2963 
Q 2534 3019 2420 3045 
Q 2306 3072 2169 3072 
Q 1681 3072 1420 2755 
Q 1159 2438 1159 1844 
L 1159 0 
L 581 0 
L 581 3500 
L 1159 3500 
L 1159 2956 
Q 1341 3275 1631 3429 
Q 1922 3584 2338 3584 
Q 2397 3584 2469 3576 
Q 2541 3569 2628 3553 
L 2631 2963 
z
" transform="scale(0.015625)"/>
       <path id="DejaVuSans-61" d="M 2194 1759 
Q 1497 1759 1228 1600 
Q 959 1441 959 1056 
Q 959 750 1161 570 
Q 1363 391 1709 391 
Q 2188 391 2477 730 
Q 2766 1069 2766 1631 
L 2766 1759 
L 2194 1759 
z
M 3341 1997 
L 3341 0 
L 2766 0 
L 2766 531 
Q 2569 213 2275 61 
Q 1981 -91 1556 -91 
Q 1019 -91 701 211 
Q 384 513 384 1019 
Q 384 1609 779 1909 
Q 1175 2209 1959 2209 
L 2766 2209 
L 2766 2266 
Q 2766 2663 2505 2880 
Q 2244 3097 1772 3097 
Q 1472 3097 1187 3025 
Q 903 2953 641 2809 
L 641 3341 
Q 956 3463 1253 3523 
Q 1550 3584 1831 3584 
Q 2591 3584 2966 3190 
Q 3341 2797 3341 1997 
z
" transform="scale(0.015625)"/>
       <path id="DejaVuSans-36" d="M 2113 2584 
Q 1688 2584 1439 2293 
Q 1191 2003 1191 1497 
Q 1191 994 1439 701 
Q 1688 409 2113 409 
Q 2538 409 2786 701 
Q 3034 994 3034 1497 
Q 3034 2003 2786 2293 
Q 2538 2584 2113 2584 
z
M 3366 4563 
L 3366 3988 
Q 3128 4100 2886 4159 
Q 2644 4219 2406 4219 
Q 1781 4219 1451 3797 
Q 1122 3375 1075 2522 
Q 1259 2794 1537 2939 
Q 1816 3084 2150 3084 
Q 2853 3084 3261 2657 
Q 3669 2231 3669 1497 
Q 3669 778 3244 343 
Q 2819 -91 2113 -91 
Q 1303 -91 875 529 
Q 447 1150 447 2328 
Q 447 3434 972 4092 
Q 1497 4750 2381 4750 
Q 2619 4750 2861 4703 
Q 3103 4656 3366 4563 
z
" transform="scale(0.015625)"/>
       <path id="DejaVuSans-25" d="M 4653 2053 
Q 4381 2053 4226 1822 
Q 4072 1591 4072 1178 
Q 4072 772 4226 539 
Q 4381 306 4653 306 
Q 4919 306 5073 539 
Q 5228 772 5228 1178 
Q 5228 1588 5073 1820 
Q 4919 2053 4653 2053 
z
M 4653 2450 
Q 5147 2450 5437 2106 
Q 5728 1763 5728 1178 
Q 5728 594 5436 251 
Q 5144 -91 4653 -91 
Q 4153 -91 3862 251 
Q 3572 594 3572 1178 
Q 3572 1766 3864 2108 
Q 4156 2450 4653 2450 
z
M 1428 4353 
Q 1159 4353 1004 4120 
Q 850 3888 850 3481 
Q 850 3069 1003 2837 
Q 1156 2606 1428 2606 
Q 1700 2606 1854 2837 
Q 2009 3069 2009 3481 
Q 2009 3884 1853 4118 
Q 1697 4353 1428 4353 
z
M 4250 4750 
L 4750 4750 
L 1831 -91 
L 1331 -91 
L 4250 4750 
z
M 1428 4750 
Q 1922 4750 2215 4408 
Q 2509 4066 2509 3481 
Q 2509 2891 2217 2550 
Q 1925 2209 1428 2209 
Q 931 2209 642 2551 
Q 353 2894 353 3481 
Q 353 4063 643 4406 
Q 934 4750 1428 4750 
z
" transform="scale(0.015625)"/>
      </defs>
      <use xlink:href="#DejaVuSans-70"/>
      <use xlink:href="#DejaVuSans-6f" transform="translate(63.476562 0)"/>
      <use xlink:href="#DejaVuSans-70" transform="translate(124.658203 0)"/>
      <use xlink:href="#DejaVuSans-5f" transform="translate(188.134766 0)"/>
      <use xlink:href="#DejaVuSans-73" transform="translate(238.134766 0)"/>
      <use xlink:href="#DejaVuSans-69" transform="translate(290.234375 0)"/>
      <use xlink:href="#DejaVuSans-7a" transform="translate(318.017578 0)"/>
      <use xlink:href="#DejaVuSans-65" transform="translate(370.507812 0)"/>
      <use xlink:href="#DejaVuSans-3d" transform="translate(432.03125 0)"/>
      <use xlink:href="#DejaVuSans-35" transform="translate(515.820312 0)"/>
      <use xlink:href="#DejaVuSans-2c" transform="translate(579.443359 0)"/>
      <use xlink:href="#DejaVuSans-20" transform="translate(611.230469 0)"/>
      <use xlink:href="#DejaVuSans-6d" transform="translate(643.017578 0)"/>
      <use xlink:href="#DejaVuSans-65" transform="translate(740.429688 0)"/>
      <use xlink:href="#DejaVuSans-6a" transform="translate(801.953125 0)"/>
      <use xlink:href="#DejaVuSans-6f" transform="translate(829.736328 0)"/>
      <use xlink:href="#DejaVuSans-72" transform="translate(890.917969 0)"/>
      <use xlink:href="#DejaVuSans-61" transform="translate(932.03125 0)"/>
      <use xlink:href="#DejaVuSans-3d" transform="translate(993.310547 0)"/>
      <use xlink:href="#DejaVuSans-30" transform="translate(1077.099609 0)"/>
      <use xlink:href="#DejaVuSans-2e" transform="translate(1140.722656 0)"/>
      <use xlink:href="#DejaVuSans-36" transform="translate(1172.509766 0)"/>
      <use xlink:href="#DejaVuSans-31" transform="translate(1236.132812 0)"/>
      <use xlink:href="#DejaVuSans-25" transform="translate(1299.755859 0)"/>
     </g>
    </g>
    <g id="line2d_23">
     <path d="M 117 324.753438 
L 127 324.753438 
L 137 324.753438 
" style="fill: none; stroke: #ff7f0e; stroke-width: 1.5; stroke-linecap: square"/>
    </g>
    <g id="text_18">
     <!-- pop_size=10, mejora=4.22% -->
     <g transform="translate(145 328.253438) scale(0.1 -0.1)">
      <use xlink:href="#DejaVuSans-70"/>
      <use xlink:href="#DejaVuSans-6f" transform="translate(63.476562 0)"/>
      <use xlink:href="#DejaVuSans-70" transform="translate(124.658203 0)"/>
      <use xlink:href="#DejaVuSans-5f" transform="translate(188.134766 0)"/>
      <use xlink:href="#DejaVuSans-73" transform="translate(238.134766 0)"/>
      <use xlink:href="#DejaVuSans-69" transform="translate(290.234375 0)"/>
      <use xlink:href="#DejaVuSans-7a" transform="translate(318.017578 0)"/>
      <use xlink:href="#DejaVuSans-65" transform="translate(370.507812 0)"/>
      <use xlink:href="#DejaVuSans-3d" transform="translate(432.03125 0)"/>
      <use xlink:href="#DejaVuSans-31" transform="translate(515.820312 0)"/>
      <use xlink:href="#DejaVuSans-30" transform="translate(579.443359 0)"/>
      <use xlink:href="#DejaVuSans-2c" transform="translate(643.066406 0)"/>
      <use xlink:href="#DejaVuSans-20" transform="translate(674.853516 0)"/>
      <use xlink:href="#DejaVuSans-6d" transform="translate(706.640625 0)"/>
      <use xlink:href="#DejaVuSans-65" transform="translate(804.052734 0)"/>
      <use xlink:href="#DejaVuSans-6a" transform="translate(865.576172 0)"/>
      <use xlink:href="#DejaVuSans-6f" transform="translate(893.359375 0)"/>
      <use xlink:href="#DejaVuSans-72" transform="translate(954.541016 0)"/>
      <use xlink:href="#DejaVuSans-61" transform="translate(995.654297 0)"/>
      <use xlink:href="#DejaVuSans-3d" transform="translate(1056.933594 0)"/>
      <use xlink:href="#DejaVuSans-34" transform="translate(1140.722656 0)"/>
      <use xlink:href="#DejaVuSans-2e" transform="translate(1204.345703 0)"/>
      <use xlink:href="#DejaVuSans-32" transform="translate(1236.132812 0)"/>
      <use xlink:href="#DejaVuSans-32" transform="translate(1299.755859 0)"/>
      <use xlink:href="#DejaVuSans-25" transform="translate(1363.378906 0)"/>
     </g>
    </g>
    <g id="line2d_24">
     <path d="M 117 339.709687 
L 127 339.709687 
L 137 339.709687 
" style="fill: none; stroke: #2ca02c; stroke-width: 1.5; stroke-linecap: square"/>
    </g>
    <g id="text_19">
     <!-- pop_size=20, mejora=3.84% -->
     <g transform="translate(145 343.209687) scale(0.1 -0.1)">
      <defs>
       <path id="DejaVuSans-38" d="M 2034 2216 
Q 1584 2216 1326 1975 
Q 1069 1734 1069 1313 
Q 1069 891 1326 650 
Q 1584 409 2034 409 
Q 2484 409 2743 651 
Q 3003 894 3003 1313 
Q 3003 1734 2745 1975 
Q 2488 2216 2034 2216 
z
M 1403 2484 
Q 997 2584 770 2862 
Q 544 3141 544 3541 
Q 544 4100 942 4425 
Q 1341 4750 2034 4750 
Q 2731 4750 3128 4425 
Q 3525 4100 3525 3541 
Q 3525 3141 3298 2862 
Q 3072 2584 2669 2484 
Q 3125 2378 3379 2068 
Q 3634 1759 3634 1313 
Q 3634 634 3220 271 
Q 2806 -91 2034 -91 
Q 1263 -91 848 271 
Q 434 634 434 1313 
Q 434 1759 690 2068 
Q 947 2378 1403 2484 
z
M 1172 3481 
Q 1172 3119 1398 2916 
Q 1625 2713 2034 2713 
Q 2441 2713 2670 2916 
Q 2900 3119 2900 3481 
Q 2900 3844 2670 4047 
Q 2441 4250 2034 4250 
Q 1625 4250 1398 4047 
Q 1172 3844 1172 3481 
z
" transform="scale(0.015625)"/>
      </defs>
      <use xlink:href="#DejaVuSans-70"/>
      <use xlink:href="#DejaVuSans-6f" transform="translate(63.476562 0)"/>
      <use xlink:href="#DejaVuSans-70" transform="translate(124.658203 0)"/>
      <use xlink:href="#DejaVuSans-5f" transform="translate(188.134766 0)"/>
      <use xlink:href="#DejaVuSans-73" transform="translate(238.134766 0)"/>
      <use xlink:href="#DejaVuSans-69" transform="translate(290.234375 0)"/>
      <use xlink:href="#DejaVuSans-7a" transform="translate(318.017578 0)"/>
      <use xlink:href="#DejaVuSans-65" transform="translate(370.507812 0)"/>
      <use xlink:href="#DejaVuSans-3d" transform="translate(432.03125 0)"/>
      <use xlink:href="#DejaVuSans-32" transform="translate(515.820312 0)"/>
      <use xlink:href="#DejaVuSans-30" transform="translate(579.443359 0)"/>
      <use xlink:href="#DejaVuSans-2c" transform="translate(643.066406 0)"/>
      <use xlink:href="#DejaVuSans-20" transform="translate(674.853516 0)"/>
      <use xlink:href="#DejaVuSans-6d" transform="translate(706.640625 0)"/>
      <use xlink:href="#DejaVuSans-65" transform="translate(804.052734 0)"/>
      <use xlink:href="#DejaVuSans-6a" transform="translate(865.576172 0)"/>
      <use xlink:href="#DejaVuSans-6f" transform="translate(893.359375 0)"/>
      <use xlink:href="#DejaVuSans-72" transform="translate(954.541016 0)"/>
      <use xlink:href="#DejaVuSans-61" transform="translate(995.654297 0)"/>
      <use xlink:href="#DejaVuSans-3d" transform="translate(1056.933594 0)"/>
      <use xlink:href="#DejaVuSans-33" transform="translate(1140.722656 0)"/>
      <use xlink:href="#DejaVuSans-2e" transform="translate(1204.345703 0)"/>
      <use xlink:href="#DejaVuSans-38" transform="translate(1236.132812 0)"/>
      <use xlink:href="#DejaVuSans-34" transform="translate(1299.755859 0)"/>
      <use xlink:href="#DejaVuSans-25" transform="translate(1363.378906 0)"/>
     </g>
    </g>
    <g id="line2d_25">
     <path d="M 117 354.665938 
L 127 354.665938 
L 137 354.665938 
" style="fill: none; stroke: #d62728; stroke-width: 1.5; stroke-linecap: square"/>
    </g>
    <g id="text_20">
     <!-- pop_size=50, mejora=5.91% -->
     <g transform="translate(145 358.165938) scale(0.1 -0.1)">
      <defs>
       <path id="DejaVuSans-39" d="M 703 97 
L 703 672 
Q 941 559 1184 500 
Q 1428 441 1663 441 
Q 2288 441 2617 861 
Q 2947 1281 2994 2138 
Q 2813 1869 2534 1725 
Q 2256 1581 1919 1581 
Q 1219 1581 811 2004 
Q 403 2428 403 3163 
Q 403 3881 828 4315 
Q 1253 4750 1959 4750 
Q 2769 4750 3195 4129 
Q 3622 3509 3622 2328 
Q 3622 1225 3098 567 
Q 2575 -91 1691 -91 
Q 1453 -91 1209 -44 
Q 966 3 703 97 
z
M 1959 2075 
Q 2384 2075 2632 2365 
Q 2881 2656 2881 3163 
Q 2881 3666 2632 3958 
Q 2384 4250 1959 4250 
Q 1534 4250 1286 3958 
Q 1038 3666 1038 3163 
Q 1038 2656 1286 2365 
Q 1534 2075 1959 2075 
z
" transform="scale(0.015625)"/>
      </defs>
      <use xlink:href="#DejaVuSans-70"/>
      <use xlink:href="#DejaVuSans-6f" transform="translate(63.476562 0)"/>
      <use xlink:href="#DejaVuSans-70" transform="translate(124.658203 0)"/>
      <use xlink:href="#DejaVuSans-5f" transform="translate(188.134766 0)"/>
      <use xlink:href="#DejaVuSans-73" transform="translate(238.134766 0)"/>
      <use xlink:href="#DejaVuSans-69" transform="translate(290.234375 0)"/>
      <use xlink:href="#DejaVuSans-7a" transform="translate(318.017578 0)"/>
      <use xlink:href="#DejaVuSans-65" transform="translate(370.507812 0)"/>
      <use xlink:href="#DejaVuSans-3d" transform="translate(432.03125 0)"/>
      <use xlink:href="#DejaVuSans-35" transform="translate(515.820312 0)"/>
      <use xlink:href="#DejaVuSans-30" transform="translate(579.443359 0)"/>
      <use xlink:href="#DejaVuSans-2c" transform="translate(643.066406 0)"/>
      <use xlink:href="#DejaVuSans-20" transform="translate(674.853516 0)"/>
      <use xlink:href="#DejaVuSans-6d" transform="translate(706.640625 0)"/>
      <use xlink:href="#DejaVuSans-65" transform="translate(804.052734 0)"/>
      <use xlink:href="#DejaVuSans-6a" transform="translate(865.576172 0)"/>
      <use xlink:href="#DejaVuSans-6f" transform="translate(893.359375 0)"/>
      <use xlink:href="#DejaVuSans-72" transform="translate(954.541016 0)"/>
      <use xlink:href="#DejaVuSans-61" transform="translate(995.654297 0)"/>
      <use xlink:href="#DejaVuSans-3d" transform="translate(1056.933594 0)"/>
      <use xlink:href="#DejaVuSans-35" transform="translate(1140.722656 0)"/>
      <use xlink:href="#DejaVuSans-2e" transform="translate(1204.345703 0)"/>
      <use xlink:href="#DejaVuSans-39" transform="translate(1236.132812 0)"/>
      <use xlink:href="#DejaVuSans-31" transform="translate(1299.755859 0)"/>
      <use xlink:href="#DejaVuSans-25" transform="translate(1363.378906 0)"/>
     </g>
    </g>
    <g id="line2d_26">
     <path d="M 117 369.622187 
L 127 369.622187 
L 137 369.622187 
" style="fill: none; stroke: #9467bd; stroke-width: 1.5; stroke-linecap: square"/>
    </g>
    <g id="text_21">
     <!-- pop_size=100, mejora=8.03% -->
     <g transform="translate(145 373.122187) scale(0.1 -0.1)">
      <use xlink:href="#DejaVuSans-70"/>
      <use xlink:href="#DejaVuSans-6f" transform="translate(63.476562 0)"/>
      <use xlink:href="#DejaVuSans-70" transform="translate(124.658203 0)"/>
      <use xlink:href="#DejaVuSans-5f" transform="translate(188.134766 0)"/>
      <use xlink:href="#DejaVuSans-73" transform="translate(238.134766 0)"/>
      <use xlink:href="#DejaVuSans-69" transform="translate(290.234375 0)"/>
      <use xlink:href="#DejaVuSans-7a" transform="translate(318.017578 0)"/>
      <use xlink:href="#DejaVuSans-65" transform="translate(370.507812 0)"/>
      <use xlink:href="#DejaVuSans-3d" transform="translate(432.03125 0)"/>
      <use xlink:href="#DejaVuSans-31" transform="translate(515.820312 0)"/>
      <use xlink:href="#DejaVuSans-30" transform="translate(579.443359 0)"/>
      <use xlink:href="#DejaVuSans-30" transform="translate(643.066406 0)"/>
      <use xlink:href="#DejaVuSans-2c" transform="translate(706.689453 0)"/>
      <use xlink:href="#DejaVuSans-20" transform="translate(738.476562 0)"/>
      <use xlink:href="#DejaVuSans-6d" transform="translate(770.263672 0)"/>
      <use xlink:href="#DejaVuSans-65" transform="translate(867.675781 0)"/>
      <use xlink:href="#DejaVuSans-6a" transform="translate(929.199219 0)"/>
      <use xlink:href="#DejaVuSans-6f" transform="translate(956.982422 0)"/>
      <use xlink:href="#DejaVuSans-72" transform="translate(1018.164062 0)"/>
      <use xlink:href="#DejaVuSans-61" transform="translate(1059.277344 0)"/>
      <use xlink:href="#DejaVuSans-3d" transform="translate(1120.556641 0)"/>
      <use xlink:href="#DejaVuSans-38" transform="translate(1204.345703 0)"/>
      <use xlink:href="#DejaVuSans-2e" transform="translate(1267.96875 0)"/>
      <use xlink:href="#DejaVuSans-30" transform="translate(1299.755859 0)"/>
      <use xlink:href="#DejaVuSans-33" transform="translate(1363.378906 0)"/>
      <use xlink:href="#DejaVuSans-25" transform="translate(1427.001953 0)"/>
     </g>
    </g>
   </g>
  </g>
 </g>
 <defs>
  <clipPath id="p2626353ac0">
   <rect x="108" y="51.84" width="669.6" height="332.64"/>
  </clipPath>
 </defs>
</svg>
